<svg width="138" height="112" viewBox="0 0 138 112" fill="none" xmlns="http://www.w3.org/2000/svg">
<path fill-rule="evenodd" clip-rule="evenodd" d="M13.6469 108.312C13.9606 108.542 15.1637 109.966 15.4058 110.328C16.2582 110.129 16.6988 109.798 17.6673 109.572C17.9183 110.182 17.906 110.813 17.6673 111.84C19.0229 112.157 26.0617 111.934 28.1114 111.757L69.0722 109.214C70.1071 109.061 71.6317 108.946 72.4815 108.853L113.159 105.044C119.699 104.609 125.772 102.875 129.258 102.541C130.898 102.384 130.902 102.36 131.814 101.324C132.365 100.698 133.003 99.8156 132.966 98.7669C132.948 98.2582 132.811 98.0287 132.713 97.2606L132.529 92.9247C132.39 91.2893 132.133 90.9655 131.956 89.6796C131.721 87.9717 132.459 89.3526 132.003 86.8978C131.597 84.7096 131.717 78.8874 131.25 76.5175C130.927 74.8811 131.835 74.5654 133.608 71.8735C137.873 65.3992 138.612 54.4772 137.593 47.0014C137.287 44.7624 137.5 42.3458 137.205 40.0818C136.183 32.2442 134.896 16.821 129.044 10.7152C127.258 8.85184 128.836 10.1899 126.412 8.06255C124.552 6.42995 122.87 5.53169 120.525 4.39002C114.046 1.2347 95.1216 -0.314018 88.491 0.0530137C84.5495 0.271218 77.8642 -0.201273 74.5607 0.300296L67.4214 0.700339C65.083 0.760284 62.8663 1.21084 60.6375 1.20476C58.2745 1.19833 49.9991 2.1351 47.0657 2.46183C41.9841 3.02778 32.3778 4.29378 27.4139 5.43338C17.5871 7.68944 7.82321 9.72151 3.34 18.3348C-1.9429 28.4845 0.244594 55.6631 1.80009 65.001C2.47384 69.0457 3.31156 73.6045 4.6696 76.9923C5.42669 78.8811 6.16975 80.3742 7.26222 81.9527C8.46111 83.685 9.28383 84.6478 11.1342 85.6298L11.7424 97.6208C11.9606 99.1038 12.5457 106.348 13.0333 107.163C13.7211 108.314 13.4693 106.683 13.6469 108.312Z" fill="white"/>
<path fill-rule="evenodd" clip-rule="evenodd" d="M17.6672 85.3419C17.6672 82.2501 14.7189 82.3794 26.5377 80.8066L52.4087 78.4426C54.0657 78.2206 56.9674 77.8661 58.6536 77.7904C64.886 77.5104 72.7637 76.3924 78.423 76.0949C80.5781 75.9815 82.9638 75.8459 85.0392 75.6307C87.2138 75.4052 89.5883 75.5414 91.8063 75.3187L117.207 73.8745C123.951 73.3174 120.723 73.9627 122.826 74.1374C122.933 75.4153 123.268 74.9762 123.396 77.5456C123.436 78.3494 123.558 77.8652 123.558 78.7654C123.558 79.6816 123.384 78.8209 123.44 79.8861C123.45 80.0781 123.547 80.9154 123.576 81.1757C124.126 86.0573 123.089 83.325 122.983 85.1881C122.901 86.6126 122.931 85.7725 123.182 85.9639C123.79 86.4288 123.317 85.5817 124.169 86.4375L123.821 89.1764C123.917 90.1461 124.632 93.6391 123.619 94.2359L123.254 94.3543C123.68 95.4971 123.269 94.4376 123.802 95.3286C122.599 94.6891 123.289 95.001 122.359 95.2928L121.864 95.4101C119.168 96.4529 108.976 96.9641 105.363 97.3507L72.5792 100.47C69.0114 100.77 62.7413 101.634 59.3932 101.664C55.017 101.704 50.3385 102.382 45.9724 102.626C41.4054 102.881 36.8928 103.015 32.3194 103.38C30.2255 103.547 27.8517 103.788 25.4682 103.847C23.9688 103.885 21.1227 104.302 19.1311 104.097C19.1394 103.76 19.1303 103.524 19.0927 103.193C19.0841 103.117 19.0712 103.06 19.0607 102.984C18.5742 99.4327 18.9274 99.4958 20.2284 99.347L20.3441 98.9662C20.6346 98.1864 20.6351 98.2106 21.327 97.7644L20.9208 97.5971C20.3093 97.2121 21.0962 98.2329 20.7247 97.4021C20.6345 97.2004 20.8788 97.236 20.595 96.5465C19.5137 96.1194 19.7729 96.1988 18.8265 96.1932L19.0085 94.9626C19.4481 95.3337 18.1931 95.2443 19.4073 95.0932C20.0788 95.0096 19.3944 95.28 19.818 94.8928C20.0696 94.6628 20.2037 94.2801 20.3511 93.9896C19.7257 93.7817 19.4939 93.6425 18.6431 93.6236C18.5574 92.619 18.6248 93.1907 18.3991 92.8928C18.906 91.6887 17.8177 94.0245 18.839 92.3541C18.8656 92.3106 18.9086 92.2504 18.9318 92.2053L19.1332 91.456L20.3511 91.309C19.9418 90.5648 19.2438 90.1089 18.1552 89.9699C18.1552 87.8257 17.6672 87.6045 17.6672 85.3419ZM128.677 43.9547C128.63 43.0638 128.465 43.1218 128.43 41.9932C128.382 40.4026 128.527 39.0195 128.297 37.4981C128.215 36.9579 127.95 33.732 127.95 33.4601C127.95 32.6203 128.131 32.517 128.194 31.755H128.682C129.034 33.262 130.146 39.2923 130.146 40.7674L130.094 42.9949C130.427 45.7027 130.286 46.3433 130.147 49.0499C130.092 50.1061 129.957 49.9396 129.901 50.9965C129.863 51.7063 129.939 52.4805 129.903 53.1912C129.802 55.2165 128.872 60.3007 127.797 62.0648L127.32 63.3037C127.042 64.4877 126.478 65.3544 125.926 66.2705C125.366 67.199 124.907 67.9971 123.802 68.2916C123.869 67.4923 124.353 66.9648 124.704 66.0219C125.245 64.5654 124.912 64.5723 126.242 64.8815C125.198 63.3251 126.417 64.3499 126.642 61.9505C126.818 60.0732 128.472 56.7466 128.44 50.5121C128.432 49.1128 128.336 47.2432 128.451 45.895C128.518 45.1088 128.726 44.8695 128.677 43.9547ZM12.0554 32.9729C12.0554 31.7457 11.7796 30.2936 13.0314 30.2936C13.6025 30.2936 14.0073 30.6977 14.0073 31.2679C14.0073 33.4723 13.6542 33.3551 12.0554 32.9729ZM12.0554 24.9349C12.0554 22.8618 13.3681 21.3315 14.2843 20.0963C14.8037 19.3961 15.2432 18.8072 15.9626 18.3616C16.4471 18.0615 17.6893 17.384 18.3991 17.384C18.6749 17.384 20.107 18.4324 20.107 19.0891C20.107 20.6464 18.1176 22.8497 17.1415 24.1666C16.5135 25.0138 14.6904 28.345 13.7634 28.345C11.8539 28.345 12.0554 26.1355 12.0554 24.9349ZM39.6261 16.4097C40.5227 16.3881 42.31 15.818 42.31 17.1404L41.4659 33.89C41.6178 37.6091 41.0423 39.3436 41.1191 40.0048C41.2639 41.2512 41.5781 40.2681 41.5781 41.2546C41.5781 43.2582 40.8269 41.5737 40.8298 44.1612C40.8312 45.4953 40.8041 46.1764 40.6688 47.1669C40.2159 50.4814 40.8461 52.1677 40.8461 52.4591C40.8461 53.084 40.458 53.0928 40.3605 54.1666L40.1125 59.7648C40.1199 61.0466 39.9741 62.7568 40.003 63.6021C40.0492 64.9485 40.3581 65.5505 40.3581 67.0737C38.117 68.5719 38.095 68.2916 34.9904 68.2916C33.2547 70.8791 30.2236 70.7302 30.1018 67.5696C29.8898 62.0704 29.8689 61.804 30.3417 56.1C30.5676 53.3758 30.3247 50.3887 30.576 47.8086C30.9567 43.9007 30.8425 43.4243 30.8425 40.0367C30.2659 40.4585 30.2664 40.7432 30.1578 41.5453C30.0739 42.1652 30.1021 42.8144 30.1076 43.4438L29.1346 69.753C26.5183 69.3423 27.1827 66.3151 27.1827 62.9328C27.1827 59.3998 27.864 53.1482 27.9053 49.0396L28.3263 43.1461C28.3742 42.3498 27.9908 41.5208 28.0114 40.8041C28.1198 37.0302 28.61 33.1146 28.6379 29.0659C28.6525 26.9326 29.1622 25.5699 29.1346 23.2295C29.1173 21.7554 28.8548 20.9689 30.1678 19.6333C30.6964 19.0958 30.4182 19.2672 31.0865 19.0891C31.023 19.8509 30.8425 19.9544 30.8425 20.7941C30.8425 22.7143 30.9878 23.0084 31.8185 23.2299C31.8185 18.7882 31.4628 18.3817 38.8942 16.6533C39.145 17.1752 38.9883 16.9868 39.1214 17.4008C39.1396 17.4574 39.1634 17.5342 39.1804 17.5855L39.3115 17.9418C39.3216 17.9079 39.3487 18.0622 39.3822 18.1148C39.406 17.0443 39.5473 17.356 39.6261 16.4097ZM88.4559 15.7109C92.8211 12.2338 98.2657 10.6868 103.893 11.6724C106.638 12.153 109.095 13.144 111.176 14.8875C111.367 15.048 111.493 15.1602 111.694 15.3447L111.944 15.5819C113.434 16.9699 114.865 18.6423 115.752 20.5496C118.025 25.4414 118.692 32.6295 117.808 38.9244C117.315 42.4359 117.159 44.4325 116.028 48.1083C113.866 55.1362 107.399 62.9532 100.356 65.3453C94.1004 67.47 85.3398 67.9566 79.9851 64.2937C79.4282 63.9127 79.146 63.5572 78.5231 63.0739C75.4004 60.6508 73.5144 56.5712 72.8028 52.4649C71.7156 46.1917 72.6563 39.3776 74.6657 33.3654C76.2856 28.5187 76.4986 29.1134 77.9633 25.7031C78.928 23.4569 78.6491 24.7748 80.175 22.3022C81.7023 19.8277 85.9286 15.3478 88.6679 14.7047C87.4242 16.5587 84.2386 17.892 83.7881 19.5762L88.4559 15.7109ZM5.71168 32.2422C5.71168 32.0021 6.00801 28.9563 6.08673 28.4758C7.18882 21.7505 7.84346 19.2468 12.3554 14.7605C14.3733 12.7541 15.9661 12.8402 17.6672 12.0253C17.4551 12.6101 17.6626 12.2072 17.2473 12.5803C17.0904 12.7212 16.839 12.8524 16.6544 12.9641C14.7872 14.0942 14.9641 14.1368 13.3059 15.4659C11.8852 16.6048 10.8051 18.1615 9.9347 19.8948C6.92757 25.8835 7.41965 34.2154 7.41965 41.2546C7.41965 43.4767 8.82983 51.3084 8.88247 52.7037C8.96015 54.7642 9.40665 56.3767 9.71833 58.4459C9.98671 60.2277 10.4051 62.1785 10.7814 63.7176C11.5342 66.7961 12.8382 70.8683 14.2506 73.1637C14.408 73.4195 14.4381 73.4463 14.6101 73.7792L15.5617 75.262C16.2904 76.1059 16.4727 76.0818 17.2361 76.76C20.7155 79.8511 20.1287 77.9522 21.083 79.2525C17.9818 79.2525 16.736 78.4563 15.1624 76.8815C10.5496 72.2652 10.0425 66.1802 8.67371 60.927C8.13121 58.8449 9.16303 61.1507 8.26242 58.4378C7.7729 56.9633 7.77366 54.9128 7.15389 52.723C6.09205 48.9708 7.17561 50.5409 7.17561 49.2926C7.17561 48.7211 6.61485 48.213 6.44482 47.0992L5.71168 32.2422ZM57.4373 36.8701C58.4848 36.7831 58.6383 36.4221 58.9765 35.4838L60.901 30.5849C61.0923 30.1401 61.1039 30.2039 61.295 29.7604L62.9108 25.7712C63.2751 24.9073 63.3141 24.7884 63.6509 23.8307C64.5391 21.3052 66.8172 17.1457 67.905 14.4374C68.6507 12.5809 68.7837 11.8996 70.1134 11.2833L74.5165 10.3203C78.8424 10.3203 76.6001 12.9689 73.8522 19.4001C73.2498 20.81 72.6341 21.9488 72.1135 23.2666C71.6756 24.3751 71.0217 25.8017 70.4527 26.9658L52.4411 68.6625C52.0023 69.5382 51.1128 71.7017 50.1177 71.7017C48.579 71.7017 48.8977 71.4171 48.8977 69.753C46.7219 71.2076 48.0189 71.8239 45.4818 70.4838C45.902 69.6096 46.0807 68.4926 46.4616 67.5646L53.3228 51.0276C54.1635 48.7412 53.6455 49.9292 54.0215 48.3183H53.5335C53.2938 49.2146 53.248 48.807 52.8467 49.5813L47.8399 62.1204C47.365 63.1262 47.122 63.9446 46.7006 64.8803C45.5519 67.4311 45.1612 69.6378 43.7739 69.753C43.7739 68.014 43.7997 66.5048 44.1675 65.0308L51.551 46.8263C51.8335 46.0434 52.0371 45.7244 52.3509 44.9454C52.5577 44.432 52.8036 43.7489 53.0483 43.206L60.5755 25.1448C61.3466 23.2621 65.4187 12.3858 67.6848 11.7818C67.3722 13.1215 66.97 13.9572 66.3838 15.1109C63.7909 20.2146 61.9249 25.6348 59.792 30.4522C59.4863 31.1429 59.4645 31.3393 59.2112 32.0644C58.7316 33.4374 57.7765 35.4167 57.4373 36.8701ZM125.51 20.307C124.11 19.8009 123.629 15.3882 120.088 11.3486C118.884 9.97496 118.18 9.14665 116.318 8.0489C114.126 6.75704 111.984 6.21227 111.603 5.6923C115.143 5.6923 119.731 8.13529 121.507 10.4194C123.135 12.5128 126.266 18.4797 125.51 20.307ZM14.2513 105.559C14.5559 105.782 15.7242 107.157 15.9593 107.507C16.787 107.315 17.2148 106.995 18.1552 106.777C18.3989 107.366 18.387 107.976 18.1552 108.969C19.4716 109.275 26.3063 109.06 28.2966 108.889L68.0701 106.431C69.075 106.283 70.5554 106.171 71.3806 106.082L110.879 102.401C117.229 101.98 123.126 100.305 126.511 99.9817C128.104 99.8299 128.108 99.806 128.993 98.8055C129.529 98.1998 130.148 97.3472 130.112 96.3337C130.094 95.842 129.962 95.6202 129.866 94.8779L129.688 90.6873C129.553 89.1067 129.303 88.7937 129.131 87.551C128.903 85.9003 129.619 87.2349 129.177 84.8624C128.783 82.7475 128.899 77.1204 128.445 74.83C128.132 73.2484 129.014 72.9433 130.736 70.3417C134.877 64.0843 135.594 53.5283 134.604 46.3031C134.308 44.1391 134.514 41.8036 134.228 39.6154C133.236 32.0405 131.986 17.1342 126.304 11.2331C124.57 9.43213 126.102 10.7254 123.748 8.66929C121.942 7.0914 120.308 6.22325 118.032 5.11984C111.741 2.07027 93.3644 0.573459 86.926 0.92819C83.0988 1.13908 76.6073 0.682426 73.3995 1.16719L66.4672 1.55382C64.1966 1.61176 62.0441 2.04721 59.8799 2.04134C57.5854 2.03512 49.5499 2.94049 46.7015 3.25628C41.7672 3.80326 32.4393 5.02682 27.6193 6.12824C18.0773 8.30869 8.59645 10.2727 4.24319 18.5973C-0.886589 28.4068 1.23751 54.6745 2.74792 63.6995C3.40214 67.6086 4.21559 72.0146 5.53426 75.2889C6.26941 77.1143 6.99093 78.5574 8.05173 80.083C9.21587 81.7573 10.0147 82.6878 11.8114 83.6369L12.4021 95.226C12.614 96.6593 13.1821 103.66 13.6555 104.449C14.3234 105.56 14.0789 103.985 14.2513 105.559Z" fill="black"/>
<path fill-rule="evenodd" clip-rule="evenodd" d="M85.2519 45.1518C85.2519 38.7316 86.1761 33.9198 89.2975 29.2167C91.8671 25.3449 95.6753 22.012 100.623 22.012C104.774 22.012 105.987 25.1479 106.676 29.119C106.948 30.6874 107.989 39.5571 106.723 41.011C106.723 40.9599 107.129 33.7219 105.707 35.1515C105.08 35.7817 106.28 45.1079 100.329 51.9215L98.4643 53.714C93.9855 57.1973 87.9612 55.8309 86.4364 51.5201C85.7767 49.655 85.2519 47.7561 85.2519 45.1518ZM83.7881 19.5762C84.2386 17.892 87.4242 16.5587 88.6679 14.7047C85.9286 15.3478 81.7023 19.8277 80.175 22.3022C78.6491 24.7748 78.928 23.4569 77.9633 25.7031C76.4986 29.1134 76.2856 28.5187 74.6657 33.3654C72.6563 39.3776 71.7156 46.1917 72.8028 52.4649C73.5144 56.5712 75.4004 60.6508 78.5231 63.0739C79.146 63.5572 79.4282 63.9127 79.9851 64.2937C85.3398 67.9566 94.1004 67.47 100.356 65.3453C107.399 62.9532 113.866 55.1362 116.028 48.1083C117.159 44.4325 117.315 42.4359 117.808 38.9244C118.692 32.6295 118.025 25.4414 115.752 20.5496C114.865 18.6423 113.434 16.9699 111.944 15.5819L111.694 15.3447C111.493 15.1602 111.367 15.048 111.176 14.8875C109.095 13.144 106.638 12.153 103.893 11.6724C98.2657 10.6868 92.8211 12.2338 88.4559 15.7109L83.7881 19.5762Z" fill="white"/>
<path fill-rule="evenodd" clip-rule="evenodd" d="M39.6261 16.4097C39.5473 17.356 39.406 17.0443 39.3822 18.1148C39.3487 18.0622 39.3216 17.9079 39.3115 17.9418L39.1804 17.5855C39.1634 17.5342 39.1396 17.4574 39.1214 17.4008C38.9883 16.9868 39.145 17.1752 38.8942 16.6533C31.4628 18.3817 31.8185 18.7882 31.8185 23.2299C30.9878 23.0084 30.8425 22.7143 30.8425 20.7941C30.8425 19.9544 31.023 19.8509 31.0865 19.0891C30.4182 19.2672 30.6964 19.0958 30.1678 19.6333C28.8548 20.9689 29.1173 21.7554 29.1346 23.2295C29.1622 25.5699 28.6525 26.9326 28.6379 29.0659C28.61 33.1146 28.1198 37.0302 28.0114 40.8041C27.9908 41.5208 28.3742 42.3498 28.3263 43.1461L27.9053 49.0396C27.864 53.1482 27.1827 59.3998 27.1827 62.9328C27.1827 66.3151 26.5183 69.3423 29.1346 69.753L30.1076 43.4438C30.1021 42.8144 30.0739 42.1652 30.1578 41.5453C30.2664 40.7432 30.2659 40.4585 30.8425 40.0367C30.8425 43.4243 30.9567 43.9007 30.576 47.8086C30.3247 50.3887 30.5676 53.3758 30.3417 56.1C29.8689 61.804 29.8898 62.0704 30.1018 67.5696C30.2236 70.7302 33.2547 70.8791 34.9904 68.2916C38.095 68.2916 38.117 68.5719 40.3581 67.0737C40.3581 65.5505 40.0492 64.9485 40.003 63.6021C39.9741 62.7568 40.1199 61.0466 40.1125 59.7648L40.3605 54.1666C40.458 53.0928 40.8461 53.084 40.8461 52.4591C40.8461 52.1677 40.2159 50.4814 40.6688 47.1669C40.8041 46.1764 40.8312 45.4953 40.8298 44.1612C40.8269 41.5737 41.5781 43.2582 41.5781 41.2546C41.5781 40.2681 41.2639 41.2512 41.1191 40.0048C41.0423 39.3436 41.6178 37.6091 41.4659 33.89L42.31 17.1404C42.31 15.818 40.5227 16.3881 39.6261 16.4097Z" fill="white"/>
<path fill-rule="evenodd" clip-rule="evenodd" d="M57.4373 36.8701C57.7765 35.4167 58.7316 33.4374 59.2112 32.0644C59.4645 31.3393 59.4863 31.1429 59.792 30.4522C61.9249 25.6348 63.7909 20.2146 66.3838 15.1109C66.97 13.9572 67.3722 13.1215 67.6848 11.7818C65.4187 12.3858 61.3466 23.2621 60.5755 25.1448L53.0483 43.206C52.8036 43.7489 52.5577 44.432 52.3509 44.9454C52.0371 45.7244 51.8335 46.0434 51.551 46.8263L44.1675 65.0308C43.7997 66.5048 43.7739 68.014 43.7739 69.753C45.1612 69.6378 45.5519 67.4311 46.7006 64.8803C47.122 63.9446 47.365 63.1262 47.8399 62.1204L52.8467 49.5813C53.248 48.807 53.2938 49.2146 53.5335 48.3183H54.0215C53.6455 49.9292 54.1635 48.7412 53.3228 51.0276L46.4616 67.5646C46.0807 68.4926 45.902 69.6096 45.4818 70.4838C48.0189 71.8239 46.7219 71.2076 48.8977 69.753C48.8977 71.4171 48.579 71.7017 50.1177 71.7017C51.1128 71.7017 52.0023 69.5382 52.4411 68.6625L70.4527 26.9658C71.0217 25.8017 71.6756 24.3751 72.1135 23.2666C72.6341 21.9488 73.2498 20.81 73.8522 19.4001C76.6001 12.9689 78.8424 10.3203 74.5165 10.3203L70.1134 11.2833C68.7837 11.8996 68.6507 12.5809 67.905 14.4374C66.8172 17.1457 64.5391 21.3052 63.6509 23.8307C63.3141 24.7884 63.2751 24.9073 62.9108 25.7712L61.295 29.7604C61.1039 30.2039 61.0923 30.1401 60.901 30.5849L58.9765 35.4838C58.6383 36.4221 58.4848 36.7831 57.4373 36.8701Z" fill="white"/>
<path fill-rule="evenodd" clip-rule="evenodd" d="M85.2519 45.1518C85.2519 47.7561 85.7767 49.655 86.4364 51.5201C87.9612 55.8309 93.9855 57.1973 98.4643 53.714L100.329 51.9215C106.28 45.1079 105.08 35.7817 105.707 35.1515C107.129 33.7219 106.723 40.9599 106.723 41.011C107.989 39.5571 106.948 30.6874 106.676 29.119C105.987 25.1479 104.774 22.012 100.623 22.012C95.6753 22.012 91.8671 25.3449 89.2975 29.2167C86.1761 33.9198 85.2519 38.7316 85.2519 45.1518Z" fill="black"/>
<path fill-rule="evenodd" clip-rule="evenodd" d="M76.9565 89.2392C79.9743 89.1648 80.3971 88.3204 83.3002 88.9956C84.1887 90.8442 83.639 91.4543 81.7839 91.8662C80.2273 92.2119 79.0356 92.4057 77.2005 92.4057C77.1086 91.3037 76.9565 90.7141 76.9565 89.2392ZM76.4685 83.8805C80.4707 83.548 80.245 82.7341 82.3242 84.1241C82.1184 86.6519 78.4218 86.3163 76.4685 86.3163V83.8805ZM72.5647 81.9319C72.5647 83.4299 72.7865 83.828 72.8073 85.3433L73.7846 95.3286C74.8372 95.2412 74.1947 95.1782 75.127 95.2455L79.5075 94.9523C81.3042 94.6843 83.7116 94.4513 85.0137 93.8728C85.8715 93.4916 86.4329 93.1554 86.9302 92.3768C87.2535 91.8707 87.7218 90.9071 87.6361 90.0183C87.4681 88.2754 86.0789 87.0471 84.2762 87.0471C85.1553 85.7363 86.7037 85.2181 85.9585 82.95C84.5499 78.6626 73.0216 81.713 72.5647 81.9319Z" fill="white"/>
<path fill-rule="evenodd" clip-rule="evenodd" d="M59.6334 93.1365C61.6038 93.1365 62.8253 92.893 64.5131 92.893L65.9771 96.0594C67.3679 96.0594 68.7519 95.8349 69.8809 95.5723C69.7457 93.9508 64.873 86.1722 63.548 83.6262C63.1203 82.8045 62.9089 82.3688 61.6118 82.4162L59.1454 82.9063C58.3211 83.2385 58.9266 82.7434 58.4641 83.6877C58.3106 84.001 58.2497 84.2466 58.1359 84.5778L56.3096 90.062C55.8512 91.4342 55.4455 92.6499 55.0287 93.8983C54.3399 95.9609 53.5731 97.0337 54.7536 97.0337C57.8477 97.0337 57.9156 97.3819 58.6352 95.3065C58.9437 94.4167 59.166 93.8334 59.6334 93.1365Z" fill="white"/>
<path fill-rule="evenodd" clip-rule="evenodd" d="M91.1077 82.9062C91.1077 85.2093 91.5888 86.6613 95.0063 87.5395C96.0477 87.8071 96.825 87.9196 98.0434 88.1613C99.0716 88.3652 99.7296 88.5072 99.9293 89.1781C100.189 90.0504 99.6358 90.3814 99.0896 90.631C96.6848 91.7302 93.8944 89.7264 93.5477 89.7264C92.9644 89.7264 91.583 91.0541 91.3518 91.9185C93.8749 95.6802 104.283 94.7968 104.283 88.5085C104.283 86.6053 101.795 85.4958 100.338 85.1397C98.8816 84.7837 94.7676 84.6484 94.7676 83.1498C94.7676 81.6032 97.8675 81.5794 100.379 82.9062C107.662 78.0376 91.1077 77.4263 91.1077 82.9062Z" fill="white"/>
<path fill-rule="evenodd" clip-rule="evenodd" d="M5.71168 32.2422L6.44482 47.0992C6.61485 48.213 7.17561 48.7211 7.17561 49.2926C7.17561 50.5409 6.09205 48.9708 7.15389 52.723C7.77366 54.9128 7.7729 56.9633 8.26242 58.4378C9.16303 61.1507 8.13121 58.8449 8.67371 60.927C10.0425 66.1802 10.5496 72.2652 15.1624 76.8815C16.736 78.4563 17.9818 79.2525 21.083 79.2525C20.1287 77.9522 20.7155 79.8511 17.2361 76.76C16.4727 76.0818 16.2904 76.1059 15.5617 75.262L14.6101 73.7792C14.4381 73.4463 14.408 73.4195 14.2506 73.1637C12.8382 70.8683 11.5342 66.7961 10.7814 63.7176C10.4051 62.1785 9.98671 60.2277 9.71833 58.4459C9.40665 56.3767 8.96015 54.7642 8.88247 52.7037C8.82983 51.3084 7.41965 43.4767 7.41965 41.2546C7.41965 34.2154 6.92757 25.8835 9.9347 19.8948C10.8051 18.1615 11.8852 16.6048 13.3059 15.4659C14.9641 14.1368 14.7872 14.0942 16.6544 12.9641C16.839 12.8524 17.0904 12.7212 17.2473 12.5803C17.6626 12.2072 17.4551 12.6101 17.6672 12.0253C15.9661 12.8402 14.3733 12.7541 12.3554 14.7605C7.84346 19.2468 7.18882 21.7505 6.08673 28.4758C6.00801 28.9563 5.71168 32.0021 5.71168 32.2422Z" fill="white"/>
<path fill-rule="evenodd" clip-rule="evenodd" d="M51.5817 93.8671C49.9739 93.8671 46.0667 94.5979 42.7981 94.5979C42.7981 91.085 42.0972 87.4232 41.8221 84.1241C40.2401 84.1241 39.4459 84.0691 38.1623 84.3677C38.1623 85.7603 38.302 86.452 38.4288 87.7552L39.1925 97.7262C39.4903 98.6236 39.4007 98.1684 40.3674 98.0732L51.8257 97.0336C51.8257 95.5616 51.857 95.0468 51.5817 93.8671Z" fill="white"/>
<path fill-rule="evenodd" clip-rule="evenodd" d="M127.95 33.4601C127.95 33.732 128.215 36.9579 128.297 37.4981C128.527 39.0195 128.382 40.4026 128.43 41.9932C128.465 43.1218 128.63 43.0638 128.677 43.9547C128.726 44.8695 128.518 45.1088 128.451 45.895C128.336 47.2432 128.432 49.1128 128.44 50.5121C128.472 56.7466 126.818 60.0732 126.642 61.9505C126.417 64.3499 125.198 63.3251 126.242 64.8815C124.912 64.5723 125.245 64.5654 124.704 66.0219C124.353 66.9648 123.869 67.4923 123.802 68.2916C124.907 67.9971 125.366 67.199 125.926 66.2705C126.478 65.3544 127.042 64.4877 127.32 63.3037L127.797 62.0648C128.872 60.3007 129.802 55.2165 129.903 53.1912C129.939 52.4805 129.863 51.7063 129.901 50.9965C129.957 49.9396 130.092 50.1061 130.147 49.0499C130.286 46.3433 130.427 45.7027 130.094 42.9949L130.146 40.7674C130.146 39.2923 129.034 33.262 128.682 31.755H128.194C128.131 32.517 127.95 32.6203 127.95 33.4601Z" fill="white"/>
<path fill-rule="evenodd" clip-rule="evenodd" d="M12.0554 24.9349C12.0554 26.1355 11.8539 28.345 13.7634 28.345C14.6904 28.345 16.5135 25.0138 17.1415 24.1666C18.1176 22.8497 20.107 20.6464 20.107 19.0891C20.107 18.4324 18.6749 17.384 18.3991 17.384C17.6893 17.384 16.4471 18.0615 15.9626 18.3616C15.2432 18.8072 14.8037 19.3961 14.2843 20.0963C13.3681 21.3315 12.0554 22.8618 12.0554 24.9349Z" fill="white"/>
<path fill-rule="evenodd" clip-rule="evenodd" d="M125.51 20.307C126.266 18.4797 123.135 12.5128 121.507 10.4194C119.731 8.13529 115.143 5.6923 111.603 5.6923C111.984 6.21227 114.126 6.75704 116.318 8.0489C118.18 9.14665 118.884 9.97496 120.088 11.3486C123.629 15.3882 124.11 19.8009 125.51 20.307Z" fill="white"/>
<path fill-rule="evenodd" clip-rule="evenodd" d="M12.0554 32.9729C13.6542 33.3551 14.0073 33.4723 14.0073 31.2679C14.0073 30.6977 13.6025 30.2936 13.0314 30.2936C11.7796 30.2936 12.0554 31.7457 12.0554 32.9729Z" fill="white"/>
<path fill-rule="evenodd" clip-rule="evenodd" d="M14.2513 105.559C13.6551 105.717 13.9214 105.451 13.7633 106.046C14.3974 105.878 14.0355 106.136 14.2513 105.559Z" fill="black"/>
<path fill-rule="evenodd" clip-rule="evenodd" d="M59.6334 93.1365C59.166 93.8334 58.9437 94.4167 58.6352 95.3065C57.9156 97.3819 57.8477 97.0337 54.7536 97.0337C53.5731 97.0337 54.3399 95.9609 55.0287 93.8983C55.4455 92.6499 55.8512 91.4342 56.3096 90.062L58.1359 84.5778C58.2497 84.2466 58.3106 84.001 58.4641 83.6877C58.9266 82.7434 58.3211 83.2385 59.1454 82.9063L61.6118 82.4162C62.9089 82.3688 63.1203 82.8045 63.548 83.6262C64.873 86.1722 69.7457 93.9508 69.8809 95.5723C68.7519 95.8349 67.3679 96.0594 65.9771 96.0594L64.5131 92.893C62.8253 92.893 61.6038 93.1365 59.6334 93.1365ZM38.1623 84.3677C39.4459 84.0691 40.2401 84.1241 41.8221 84.1241C42.0972 87.4232 42.7981 91.085 42.7981 94.5979C46.0667 94.5979 49.9739 93.8671 51.5817 93.8671C51.857 95.0468 51.8257 95.5616 51.8257 97.0336L40.3674 98.0732C39.4007 98.1684 39.4903 98.6236 39.1925 97.7262L38.4288 87.7552C38.302 86.452 38.1623 85.7603 38.1623 84.3677ZM72.5647 81.9319C73.0216 81.713 84.5499 78.6626 85.9585 82.95C86.7037 85.2181 85.1553 85.7363 84.2762 87.0471C86.0789 87.0471 87.4681 88.2754 87.6361 90.0183C87.7218 90.9071 87.2535 91.8707 86.9302 92.3768C86.4329 93.1554 85.8715 93.4916 85.0137 93.8728C83.7116 94.4513 81.3042 94.6843 79.5075 94.9523L75.127 95.2455C74.1947 95.1782 74.8372 95.2412 73.7846 95.3286L72.8073 85.3433C72.7865 83.828 72.5647 83.4299 72.5647 81.9319ZM91.1077 82.9062C91.1077 77.4263 107.662 78.0376 100.379 82.9062C97.8675 81.5794 94.7676 81.6032 94.7676 83.1498C94.7676 84.6484 98.8816 84.7837 100.338 85.1397C101.795 85.4958 104.283 86.6053 104.283 88.5085C104.283 94.7968 93.8749 95.6802 91.3518 91.9185C91.583 91.0541 92.9644 89.7264 93.5477 89.7264C93.8944 89.7264 96.6848 91.7302 99.0896 90.631C99.6358 90.3814 100.189 90.0504 99.9293 89.1781C99.7296 88.5072 99.0716 88.3652 98.0434 88.1613C96.825 87.9196 96.0477 87.8071 95.0063 87.5395C91.5888 86.6613 91.1077 85.2093 91.1077 82.9062ZM17.6672 85.3419C17.6672 87.6045 18.1552 87.8257 18.1552 89.9699C19.2438 90.1089 19.9418 90.5648 20.3511 91.309L19.1332 91.456L18.9318 92.2053C18.9086 92.2504 18.8656 92.3106 18.839 92.3541C17.8177 94.0245 18.906 91.6887 18.3991 92.8928C18.6248 93.1907 18.5574 92.619 18.6431 93.6236C19.4939 93.6425 19.7257 93.7817 20.3511 93.9896C20.2037 94.2801 20.0696 94.6628 19.818 94.8928C19.3944 95.28 20.0788 95.0096 19.4073 95.0932C18.1931 95.2443 19.4481 95.3337 19.0085 94.9626L18.8265 96.1932C19.7729 96.1988 19.5137 96.1194 20.595 96.5465C20.8788 97.236 20.6345 97.2004 20.7247 97.4021C21.0962 98.2329 20.3093 97.2121 20.9208 97.5971L21.327 97.7644C20.6351 98.2106 20.6346 98.1864 20.3441 98.9662L20.2284 99.347C18.9274 99.4958 18.5742 99.4327 19.0607 102.984C19.0712 103.06 19.0841 103.117 19.0927 103.193C19.1303 103.524 19.1394 103.76 19.1311 104.097C21.1227 104.302 23.9688 103.885 25.4682 103.847C27.8517 103.788 30.2255 103.547 32.3194 103.38C36.8928 103.015 41.4054 102.881 45.9724 102.626C50.3385 102.382 55.017 101.704 59.3932 101.664C62.7413 101.634 69.0114 100.77 72.5792 100.47L105.363 97.3507C108.976 96.9641 119.168 96.4529 121.864 95.4101L122.359 95.2928C123.289 95.001 122.599 94.6891 123.802 95.3286C123.269 94.4376 123.68 95.4971 123.254 94.3543L123.619 94.2359C124.632 93.6391 123.917 90.1461 123.821 89.1764L124.169 86.4375C123.317 85.5817 123.79 86.4288 123.182 85.9639C122.931 85.7725 122.901 86.6126 122.983 85.1881C123.089 83.325 124.126 86.0573 123.576 81.1757C123.547 80.9154 123.45 80.0781 123.44 79.8861C123.384 78.8209 123.558 79.6816 123.558 78.7654C123.558 77.8652 123.436 78.3494 123.396 77.5456C123.268 74.9762 122.933 75.4153 122.826 74.1374C120.723 73.9627 123.951 73.3174 117.207 73.8745L91.8063 75.3187C89.5883 75.5414 87.2138 75.4052 85.0392 75.6307C82.9638 75.8459 80.5781 75.9815 78.423 76.0949C72.7637 76.3924 64.886 77.5104 58.6536 77.7904C56.9674 77.8661 54.0657 78.2206 52.4087 78.4426L26.5377 80.8066C14.7189 82.3794 17.6672 82.2501 17.6672 85.3419Z" fill="#FF00FF"/>
<path fill-rule="evenodd" clip-rule="evenodd" d="M76.9565 89.2392C76.9565 90.7141 77.1086 91.3037 77.2005 92.4057C79.0356 92.4057 80.2273 92.2119 81.7839 91.8662C83.639 91.4543 84.1887 90.8442 83.3002 88.9956C80.3971 88.3204 79.9743 89.1648 76.9565 89.2392Z" fill="#FF00FF"/>
<path fill-rule="evenodd" clip-rule="evenodd" d="M76.4685 83.8805V86.3163C78.4218 86.3163 82.1184 86.6519 82.3242 84.1241C80.245 82.7341 80.4707 83.548 76.4685 83.8805Z" fill="#FF00FF"/>
<path fill-rule="evenodd" clip-rule="evenodd" d="M60.0612 90.8013C60.0612 90.7004 61.1228 86.5955 61.3419 86.36C61.561 86.1244 63.4484 90.1957 63.6001 90.7341C63.7517 91.2724 59.6399 90.9023 60.0612 90.8013Z" fill="#FF00FF"/>
</svg>
