<svg width="13" height="13" viewBox="0 0 13 13" fill="none" xmlns="http://www.w3.org/2000/svg">
<path d="M12.135 3.08962L9.35214 0.289995C9.26269 0.200009 9.15354 0.130058 9.03428 0.0800659C8.91502 0.0300735 8.78569 0 8.65649 0C8.52728 0 8.39819 0.0300735 8.26899 0.0800659C8.14972 0.130058 8.04033 0.200009 7.95088 0.289995L0.288258 7.99878C0.198811 8.08877 0.129279 8.19882 0.0795865 8.3188C0.0298935 8.44878 0 8.57865 0 8.70863V11.4982C0 11.7682 0.109363 12.0181 0.288258 12.2081C0.477092 12.3881 0.725518 12.4981 0.99386 12.4981H11.4294C11.5586 12.4981 11.6879 12.4482 11.7773 12.3482C11.8767 12.2582 11.9263 12.1282 11.9263 11.9982C11.9263 11.8682 11.8767 11.7381 11.7773 11.6481C11.6879 11.5481 11.5586 11.4982 11.4294 11.4982H5.17797L12.135 4.49931C12.2244 4.40933 12.294 4.29928 12.3437 4.1793C12.3934 4.04931 12.4233 3.91944 12.4233 3.78946C12.4233 3.65948 12.3934 3.52937 12.3437 3.40939C12.294 3.28941 12.2244 3.1796 12.135 3.08962ZM3.76677 11.4982H0.99386V8.70863L6.46009 3.20947L9.233 5.99909L3.76677 11.4982ZM9.9386 5.28923L7.16569 2.49962L8.65649 0.999848L11.4294 3.78946L9.9386 5.28923Z" fill="black"/>
</svg>
